<svg xmlns="http://www.w3.org/2000/svg" width="120" height="40" fill="none" viewBox="0 0 120 40"><path fill="#393e46" d="M120 0H0v40h120z"/><path fill="#fff" d="M25.316 29.2h-3.871V10.671h8.465c3.587 0 5.755 2.3 5.755 5.935 0 1.677-.929 5.91-5.91 5.91h-4.439zm3.587-9.884c2.89 0 2.89-2.065 2.89-2.89 0-1.806-1.007-2.555-3.407-2.555h-3.071v5.445zm9.445-3.845h3.458v2.374h.051c.749-1.394 1.574-2.736 3.768-2.736q.352.006.7.052v3.665a7 7 0 0 0-1.032-.052c-2.813 0-3.329 1.755-3.329 3.277V29.2h-3.616zm15.769 14.091c-3.69 0-7.019-2.271-7.019-7.226s3.329-7.226 7.019-7.226 7.019 2.271 7.019 7.226-3.329 7.226-7.019 7.226m0-11.407c-2.787 0-3.3 2.426-3.3 4.181s.516 4.181 3.3 4.181 3.3-2.426 3.3-4.181-.513-4.181-3.3-4.181m13.728 11.046h-3.613V18.052h-1.987v-2.581h1.987v-1.11c0-2.839 1.548-3.923 4.026-3.923 1.058 0 1.548.026 1.858.052v2.916H69.11c-1.239 0-1.265.387-1.265 1.523v.542h2.349v2.581h-2.349zm8.13-15.359h-3.613v-3.355h3.613zm0 1.626v13.729h-3.613V15.472zM83.148 29.2h-3.613V10.671h3.613zM98.4 25.175a5.946 5.946 0 0 1-6.038 4.387c-3.871 0-6.839-1.858-6.839-7.51 0-1.652.568-6.942 6.58-6.942 2.71 0 6.453 1.29 6.453 7.561v.645h-9.42c.1 1.032.31 3.355 3.226 3.355a2.32 2.32 0 0 0 2.323-1.5zm-3.561-4.206c-.206-2.219-1.626-2.89-2.787-2.89-1.7 0-2.607 1.084-2.813 2.89z"/></svg>